<svg width="810" height="810" viewBox="0 0 810 810" fill="none" xmlns="http://www.w3.org/2000/svg">
<rect width="810" height="810" rx="405" fill="white"/>
<path d="M378.803 5.21528C377.082 5.37166 371.608 5.91899 366.681 6.30994C253.055 16.5528 146.623 77.8537 79.2131 172.072C41.6764 224.46 17.6686 283.884 8.59726 346.827C5.39101 368.798 5 375.288 5 405.078C5 434.869 5.39101 441.358 8.59726 463.33C30.3372 613.533 137.239 739.731 282.224 786.489C308.187 794.855 335.557 800.563 366.681 804.003C378.803 805.332 431.197 805.332 443.319 804.003C497.043 798.061 542.556 784.768 587.444 761.859C594.326 758.34 595.655 757.402 594.717 756.62C594.091 756.151 564.765 716.821 529.575 669.282L465.606 582.882L385.45 464.268C341.344 399.058 305.059 345.732 304.746 345.732C304.433 345.654 304.12 398.354 303.964 462.704C303.729 575.376 303.651 579.911 302.243 582.569C300.21 586.401 298.646 587.964 295.362 589.685C292.859 590.936 290.67 591.17 278.861 591.17H265.332L261.735 588.903C259.389 587.417 257.669 585.462 256.496 583.195L254.853 579.676L255.01 422.906L255.244 266.057L257.669 263.007C258.92 261.365 261.579 259.254 263.456 258.238C266.662 256.674 267.913 256.518 281.442 256.518C297.395 256.518 300.054 257.143 304.198 261.678C305.371 262.929 348.773 328.296 400.699 407.033C452.625 485.77 523.631 593.281 558.509 646.06L621.852 741.999L625.059 739.887C653.446 721.435 683.475 695.163 707.248 667.796C757.845 609.701 790.455 538.861 801.403 463.33C804.609 441.358 805 434.869 805 405.078C805 375.288 804.609 368.798 801.403 346.827C779.663 196.624 672.761 70.4256 527.776 23.6681C502.204 15.38 474.99 9.67211 444.492 6.23175C436.984 5.44985 385.293 4.58976 378.803 5.21528ZM542.556 247.135C546.31 249.011 549.36 252.608 550.455 256.361C551.08 258.394 551.237 301.868 551.08 399.84L550.846 540.425L526.056 502.425L501.188 464.424V362.23C501.188 296.16 501.5 259.02 501.97 257.221C503.221 252.843 505.958 249.402 509.712 247.369C512.918 245.727 514.091 245.571 526.369 245.571C537.942 245.571 539.976 245.727 542.556 247.135Z" fill="black"/>
</svg>
