<svg width="291" height="291" viewBox="0 0 291 291" fill="none" xmlns="http://www.w3.org/2000/svg">
<path d="M0 147.53C0.07 165.13 14.4 179.54 32.01 179.54C40.4946 179.529 48.6288 176.155 54.6293 170.156C60.6297 164.158 64.0068 156.025 64.02 147.54V143C64.034 140.285 64.8849 137.641 66.4565 135.427C68.0281 133.213 70.2441 131.538 72.8024 130.629C75.3608 129.721 78.137 129.623 80.7528 130.35C83.3687 131.077 85.6968 132.592 87.42 134.69H108.12C106.281 127.895 102.257 121.894 96.6687 117.613C91.0808 113.332 84.2394 111.008 77.2 111C68.7154 111.013 60.5822 114.39 54.5837 120.391C48.5851 126.391 45.2106 134.525 45.2 143.01V147.53C45.1947 151.027 43.8017 154.38 41.3267 156.851C38.8518 159.322 35.4974 160.71 32 160.71C28.5061 160.705 25.1568 159.314 22.6862 156.844C20.2156 154.373 18.8253 151.024 18.82 147.53C18.82 147.035 18.7225 146.545 18.533 146.087C18.3436 145.63 18.0659 145.214 17.7158 144.864C17.3657 144.514 16.9501 144.236 16.4927 144.047C16.0353 143.858 15.5451 143.76 15.05 143.76H3.76C2.76187 143.763 1.80552 144.161 1.10067 144.868C0.395819 145.574 -3.51136e-06 146.532 0 147.53ZM122.49 179.54C115.457 179.513 108.628 177.181 103.048 172.9C97.4683 168.619 93.4467 162.626 91.6 155.84H112.27C113.982 157.96 116.309 159.497 118.931 160.238C121.554 160.979 124.341 160.888 126.909 159.977C129.478 159.066 131.7 157.38 133.269 155.153C134.838 152.925 135.677 150.265 135.67 147.54V143C135.683 134.515 139.06 126.382 145.061 120.384C151.061 114.385 159.195 111.011 167.68 111C185.11 111 199.32 125 199.68 142.33L199.78 147.53C199.794 150.245 200.645 152.889 202.216 155.103C203.788 157.317 206.004 158.992 208.562 159.901C211.121 160.809 213.897 160.907 216.513 160.18C219.129 159.453 221.457 157.938 223.18 155.84H243.88C242.043 162.635 238.021 168.637 232.435 172.92C226.849 177.203 220.009 179.529 212.97 179.54C195.36 179.54 181.03 165.12 180.96 147.54L180.86 142.84V142.64C180.759 139.211 179.326 135.955 176.866 133.564C174.405 131.173 171.111 129.834 167.68 129.83C164.186 129.835 160.837 131.226 158.366 133.696C155.896 136.167 154.505 139.516 154.5 143.01V147.53C154.489 156.016 151.114 164.152 145.113 170.153C139.112 176.154 130.976 179.529 122.49 179.54ZM247.94 134.7C249.652 132.579 251.981 131.042 254.604 130.301C257.227 129.56 260.015 129.653 262.584 130.565C265.153 131.477 267.375 133.164 268.943 135.394C270.512 137.623 271.349 140.284 271.34 143.01C271.34 143.505 271.438 143.995 271.627 144.453C271.816 144.91 272.094 145.326 272.444 145.676C272.794 146.026 273.21 146.304 273.667 146.493C274.125 146.682 274.615 146.78 275.11 146.78H286.41C287.408 146.777 288.364 146.379 289.069 145.672C289.774 144.966 290.17 144.008 290.17 143.01C290.159 134.524 286.784 126.388 280.783 120.387C274.782 114.386 266.646 111.011 258.16 111C251.119 111.008 244.277 113.334 238.689 117.617C233.101 121.9 229.078 127.903 227.24 134.7H247.94Z" fill="white"/>
</svg>
