<svg width="152" height="148" viewBox="0 0 152 148" fill="none" xmlns="http://www.w3.org/2000/svg">
<g clip-path="url(#clip0_212_115)">
<path d="M80 145.18C96.569 145.18 110 131.749 110 115.18C110 98.611 96.569 85.18 80 85.18C63.431 85.18 50 98.611 50 115.18C50 131.749 63.431 145.18 80 145.18Z" fill="#52E355"/>
<path d="M80 138.07C94.602 138.07 106.44 126.232 106.44 111.63C106.44 97.028 94.602 85.19 80 85.19C65.398 85.19 53.56 97.028 53.56 111.63C53.56 126.232 65.398 138.07 80 138.07Z" fill="#90FC95"/>
<path d="M80 137.18C75.649 137.18 71.395 135.89 67.777 133.472C64.16 131.055 61.34 127.619 59.675 123.599C58.01 119.579 57.574 115.156 58.423 110.888C59.272 106.62 61.367 102.7 64.444 99.624C67.52 96.547 71.44 94.452 75.708 93.603C79.976 92.754 84.399 93.19 88.419 94.855C92.439 96.52 95.875 99.34 98.292 102.957C100.71 106.575 102 110.829 102 115.18C102 121.015 99.682 126.611 95.556 130.736C91.431 134.862 85.835 137.18 80 137.18Z" fill="#FFC444"/>
<path d="M80 137.18C76.214 137.18 72.512 136.058 69.364 133.955C66.215 131.852 63.761 128.863 62.311 125.365C60.86 121.868 60.479 118.019 61.216 114.305C61.952 110.591 63.773 107.179 66.448 104.5C69.124 101.82 72.533 99.994 76.246 99.252C79.958 98.509 83.808 98.884 87.308 100.329C90.807 101.774 93.8 104.224 95.908 107.369C98.016 110.514 99.144 114.214 99.15 118C99.153 123.082 97.137 127.958 93.546 131.555C89.955 135.151 85.082 137.175 80 137.18Z" fill="#FFE76E"/>
<path d="M80 139.18C75.253 139.18 70.613 137.772 66.666 135.135C62.72 132.498 59.643 128.75 57.827 124.364C56.01 119.979 55.535 115.153 56.461 110.498C57.387 105.842 59.673 101.566 63.029 98.209C66.386 94.853 70.662 92.567 75.318 91.641C79.973 90.715 84.799 91.19 89.184 93.007C93.57 94.823 97.318 97.9 99.955 101.846C102.592 105.793 104 110.433 104 115.18C104 121.545 101.471 127.65 96.971 132.151C92.47 136.651 86.365 139.18 80 139.18ZM80 95.18C76.044 95.18 72.178 96.353 68.889 98.551C65.6 100.748 63.036 103.872 61.522 107.526C60.009 111.181 59.613 115.202 60.384 119.082C61.156 122.961 63.061 126.525 65.858 129.322C68.655 132.119 72.219 134.024 76.098 134.796C79.978 135.567 83.999 135.171 87.654 133.658C91.308 132.144 94.432 129.58 96.629 126.291C98.827 123.002 100 119.136 100 115.18C100 112.554 99.483 109.953 98.478 107.526C97.472 105.1 95.999 102.895 94.142 101.038C92.285 99.181 90.08 97.707 87.654 96.702C85.227 95.697 82.626 95.18 80 95.18Z" fill="#2FB1EA"/>
<path d="M82.25 112.68H77.75C77.391 112.68 77.046 112.537 76.792 112.283C76.538 112.029 76.395 111.684 76.395 111.325C76.395 110.966 76.538 110.621 76.792 110.367C77.046 110.113 77.391 109.97 77.75 109.97H86.1C86.763 109.97 87.399 109.707 87.868 109.238C88.337 108.769 88.6 108.133 88.6 107.47C88.6 106.807 88.337 106.171 87.868 105.702C87.399 105.233 86.763 104.97 86.1 104.97H82.5V103.61C82.5 102.947 82.237 102.311 81.768 101.842C81.299 101.373 80.663 101.11 80 101.11C79.337 101.11 78.701 101.373 78.232 101.842C77.763 102.311 77.5 102.947 77.5 103.61V105C75.816 105.033 74.214 105.734 73.046 106.948C71.879 108.163 71.242 109.791 71.275 111.475C71.308 113.159 72.009 114.761 73.223 115.929C74.438 117.096 76.066 117.733 77.75 117.7H82.25C82.609 117.7 82.954 117.843 83.208 118.097C83.462 118.351 83.605 118.696 83.605 119.055C83.605 119.414 83.462 119.759 83.208 120.013C82.954 120.267 82.609 120.41 82.25 120.41H73.9C73.237 120.41 72.601 120.673 72.132 121.142C71.663 121.611 71.4 122.247 71.4 122.91C71.4 123.573 71.663 124.209 72.132 124.678C72.601 125.147 73.237 125.41 73.9 125.41H77.5V126.77C77.5 127.433 77.763 128.069 78.232 128.538C78.701 129.007 79.337 129.27 80 129.27C80.663 129.27 81.299 129.007 81.768 128.538C82.237 128.069 82.5 127.433 82.5 126.77V125.4C84.184 125.367 85.786 124.666 86.954 123.452C88.121 122.237 88.758 120.609 88.725 118.925C88.692 117.241 87.991 115.639 86.777 114.471C85.562 113.304 83.934 112.667 82.25 112.7V112.68Z" fill="#2FB1EA"/>
<path d="M80 147.18C73.671 147.18 67.484 145.303 62.222 141.787C56.959 138.271 52.858 133.273 50.436 127.426C48.014 121.579 47.38 115.144 48.615 108.937C49.85 102.73 52.897 97.028 57.373 92.553C61.848 88.077 67.55 85.03 73.757 83.795C79.965 82.56 86.399 83.194 92.246 85.616C98.093 88.038 103.091 92.139 106.607 97.402C110.123 102.664 112 108.851 112 115.18C112 123.667 108.629 131.806 102.627 137.807C96.626 143.809 88.487 147.18 80 147.18ZM80 87.18C74.462 87.18 69.049 88.822 64.444 91.899C59.839 94.976 56.251 99.349 54.131 104.465C52.012 109.581 51.458 115.211 52.538 120.643C53.618 126.074 56.285 131.063 60.201 134.979C64.117 138.895 69.106 141.562 74.537 142.642C79.969 143.722 85.599 143.168 90.715 141.049C95.831 138.929 100.204 135.341 103.281 130.736C106.358 126.131 108 120.718 108 115.18C108 107.754 105.05 100.632 99.799 95.381C94.548 90.13 87.426 87.18 80 87.18Z" fill="#2FB1EA"/>
<path d="M32 82C48.569 82 62 68.5685 62 52C62 35.4315 48.569 22 32 22C15.431 22 2 35.4315 2 52C2 68.5685 15.431 82 32 82Z" fill="#52E355"/>
<path d="M32 74.88C46.602 74.88 58.44 63.0424 58.44 48.44C58.44 33.8376 46.602 22 32 22C17.398 22 5.56 33.8376 5.56 48.44C5.56 63.0424 17.398 74.88 32 74.88Z" fill="#90FC95"/>
<path d="M32 74C27.649 74 23.395 72.7097 19.777 70.2923C16.16 67.8749 13.34 64.439 11.675 60.419C10.01 56.3991 9.57401 51.9756 10.423 47.708C11.272 43.4404 13.367 39.5204 16.444 36.4436C19.52 33.3669 23.44 31.2716 27.708 30.4227C31.976 29.5739 36.399 30.0095 40.419 31.6747C44.439 33.3398 47.875 36.1596 50.292 39.7775C52.71 43.3953 54 47.6488 54 52C54 57.8348 51.682 63.4306 47.556 67.5564C43.431 71.6822 37.835 74 32 74Z" fill="#FFC444"/>
<path d="M32 74C28.212 74 24.51 72.8769 21.361 70.7726C18.212 68.6684 15.757 65.6776 14.308 62.1784C12.858 58.6792 12.479 54.8288 13.218 51.114C13.957 47.3993 15.781 43.9871 18.459 41.3089C21.137 38.6307 24.549 36.8069 28.264 36.068C31.979 35.3291 35.829 35.7083 39.328 37.1577C42.828 38.6071 45.818 41.0616 47.923 44.2108C50.027 47.36 51.15 51.0625 51.15 54.85C51.145 59.9273 49.125 64.7951 45.535 68.3853C41.945 71.9754 37.077 73.9947 32 74Z" fill="#FFE76E"/>
<path d="M32 76C27.253 76 22.613 74.5924 18.666 71.9553C14.72 69.3181 11.643 65.5698 9.82701 61.1844C8.01001 56.799 7.535 51.9734 8.461 47.3178C9.387 42.6623 11.673 38.3859 15.029 35.0294C18.386 31.673 22.662 29.3872 27.318 28.4612C31.973 27.5351 36.799 28.0104 41.184 29.8269C45.57 31.6434 49.318 34.7195 51.955 38.6663C54.592 42.6131 56 47.2533 56 52C56 58.3652 53.471 64.4697 48.971 68.9706C44.47 73.4714 38.365 76 32 76ZM32 32C28.044 32 24.178 33.173 20.889 35.3706C17.6 37.5682 15.036 40.6918 13.522 44.3463C12.009 48.0009 11.613 52.0222 12.384 55.9018C13.156 59.7814 15.061 63.3451 17.858 66.1421C20.655 68.9392 24.219 70.844 28.098 71.6157C31.978 72.3874 35.999 71.9913 39.654 70.4776C43.308 68.9638 46.432 66.4004 48.629 63.1114C50.827 59.8224 52 55.9556 52 52C52 46.6957 49.893 41.6086 46.142 37.8579C42.391 34.1071 37.304 32 32 32Z" fill="#2FB1EA"/>
<path d="M34.25 49.5H29.75C29.391 49.5 29.046 49.3572 28.792 49.1031C28.538 48.849 28.395 48.5044 28.395 48.145C28.395 47.7856 28.538 47.441 28.792 47.1869C29.046 46.9328 29.391 46.79 29.75 46.79H38.1C38.763 46.79 39.399 46.5266 39.868 46.0578C40.337 45.5889 40.6 44.953 40.6 44.29C40.6 43.627 40.337 42.9911 39.868 42.5222C39.399 42.0534 38.763 41.79 38.1 41.79H34.5V40.43C34.5 39.767 34.237 39.1311 33.768 38.6622C33.299 38.1934 32.663 37.93 32 37.93C31.337 37.93 30.701 38.1934 30.232 38.6622C29.763 39.1311 29.5 39.767 29.5 40.43V41.8C28.666 41.8164 27.844 41.9969 27.079 42.3312C26.315 42.6655 25.625 43.147 25.046 43.7483C23.879 44.9626 23.242 46.5909 23.275 48.275C23.308 49.9591 24.009 51.5611 25.223 52.7285C26.438 53.8959 28.066 54.5332 29.75 54.5H34.25C34.609 54.5 34.954 54.6428 35.208 54.8969C35.462 55.151 35.605 55.4956 35.605 55.855C35.605 56.2144 35.462 56.559 35.208 56.8131C34.954 57.0672 34.609 57.21 34.25 57.21H25.9C25.237 57.21 24.601 57.4734 24.132 57.9422C23.663 58.4111 23.4 59.047 23.4 59.71C23.4 60.373 23.663 61.0089 24.132 61.4778C24.601 61.9466 25.237 62.21 25.9 62.21H29.5V63.57C29.5 64.233 29.763 64.8689 30.232 65.3378C30.701 65.8066 31.337 66.07 32 66.07C32.663 66.07 33.299 65.8066 33.768 65.3378C34.237 64.8689 34.5 64.233 34.5 63.57V62.2C36.184 62.1668 37.786 61.466 38.954 60.2517C40.121 59.0374 40.758 57.4091 40.725 55.725C40.692 54.0409 39.991 52.4389 38.777 51.2715C37.562 50.1041 35.934 49.4668 34.25 49.5Z" fill="#2FB1EA"/>
<path d="M32 84C25.671 84 19.484 82.123 14.222 78.607C8.959 75.0908 4.858 70.0931 2.436 64.2459C0.0140011 58.3986 -0.619998 51.9645 0.615002 45.7571C1.85 39.5497 4.89701 33.8479 9.373 29.3726C13.848 24.8973 19.55 21.8496 25.757 20.6149C31.965 19.3801 38.399 20.0138 44.246 22.4359C50.093 24.8579 55.091 28.9594 58.607 34.2218C62.123 39.4841 64 45.671 64 52C64 60.4869 60.629 68.6263 54.627 74.6274C48.626 80.629 40.487 84 32 84ZM32 24C26.462 24 21.049 25.6422 16.444 28.7188C11.839 31.7955 8.251 36.1685 6.131 41.2849C4.012 46.4012 3.45801 52.0311 4.53801 57.4625C5.61801 62.894 8.285 67.8831 12.201 71.799C16.117 75.7149 21.106 78.382 26.537 79.462C31.969 80.542 37.599 79.988 42.715 77.8686C47.831 75.7494 52.204 72.1605 55.281 67.556C58.358 62.9514 60 57.5379 60 52C60 44.5739 57.05 37.452 51.799 32.201C46.548 26.95 39.426 24 32 24Z" fill="#2FB1EA"/>
<path d="M120 62C136.569 62 150 48.5685 150 32C150 15.4315 136.569 2 120 2C103.431 2 90 15.4315 90 32C90 48.5685 103.431 62 120 62Z" fill="#52E355"/>
<path d="M120 54.88C134.602 54.88 146.44 43.0424 146.44 28.44C146.44 13.8376 134.602 2 120 2C105.398 2 93.56 13.8376 93.56 28.44C93.56 43.0424 105.398 54.88 120 54.88Z" fill="#90FC95"/>
<path d="M120 64C113.671 64 107.484 62.1232 102.222 58.607C96.959 55.0908 92.858 50.0931 90.436 44.2459C88.014 38.3986 87.38 31.9645 88.615 25.7571C89.85 19.5497 92.897 13.8479 97.373 9.3726C101.848 4.8973 107.55 1.8496 113.757 0.614905C119.965 -0.619895 126.399 0.0138037 132.246 2.4359C138.093 4.8579 143.091 8.95941 146.607 14.2218C150.123 19.4841 152 25.671 152 32C152 40.4869 148.629 48.6263 142.627 54.6274C136.626 60.6286 128.487 64 120 64ZM120 4C114.462 4 109.049 5.6422 104.444 8.7188C99.839 11.7955 96.251 16.1685 94.131 21.2849C92.012 26.4012 91.458 32.0311 92.538 37.4625C93.618 42.894 96.285 47.8831 100.201 51.799C104.117 55.7149 109.106 58.3816 114.537 59.462C119.969 60.5424 125.599 59.9879 130.715 57.8686C135.831 55.7494 140.204 52.1605 143.281 47.556C146.358 42.9514 148 37.5379 148 32C148 28.323 147.276 24.682 145.869 21.2849C144.461 17.8877 142.399 14.8011 139.799 12.201C137.199 9.601 134.112 7.5385 130.715 6.1314C127.318 4.7242 123.677 4 120 4Z" fill="#2FB1EA"/>
<path d="M120 54C115.649 54 111.395 52.7097 107.777 50.2923C104.16 47.8749 101.34 44.439 99.675 40.419C98.01 36.3991 97.574 31.9756 98.423 27.708C99.272 23.4404 101.367 19.5204 104.444 16.4436C107.52 13.3669 111.44 11.2716 115.708 10.4227C119.976 9.5739 124.399 10.0095 128.419 11.6747C132.439 13.3398 135.875 16.1596 138.292 19.7775C140.71 23.3953 142 27.6488 142 32C142 37.8348 139.682 43.4306 135.556 47.5564C131.431 51.6822 125.835 54 120 54Z" fill="#FFC444"/>
<path d="M120 54C116.212 54 112.51 52.8769 109.361 50.7726C106.212 48.6684 103.757 45.6776 102.308 42.1784C100.858 38.6792 100.479 34.8288 101.218 31.114C101.957 27.3993 103.781 23.9871 106.459 21.3089C109.137 18.6307 112.549 16.8069 116.264 16.068C119.979 15.3291 123.829 15.7083 127.328 17.1577C130.828 18.6071 133.818 21.0616 135.923 24.2108C138.027 27.36 139.15 31.0625 139.15 34.85C139.145 39.9273 137.125 44.7951 133.535 48.3853C129.945 51.9754 125.077 53.9947 120 54Z" fill="#FFE76E"/>
<path d="M120 56C115.253 56 110.613 54.5924 106.666 51.9553C102.72 49.3181 99.643 45.5698 97.827 41.1844C96.01 36.799 95.535 31.9734 96.461 27.3178C97.387 22.6623 99.673 18.3859 103.029 15.0294C106.386 11.673 110.662 9.3872 115.318 8.4611C119.973 7.5351 124.799 8.0104 129.184 9.8269C133.57 11.6434 137.318 14.7195 139.955 18.6663C142.592 22.6131 144 27.2532 144 32C144 38.3652 141.471 44.4697 136.971 48.9706C132.47 53.4714 126.365 56 120 56ZM120 12C116.044 12 112.178 13.173 108.889 15.3706C105.6 17.5682 103.036 20.6918 101.522 24.3463C100.009 28.0009 99.613 32.0222 100.384 35.9018C101.156 39.7814 103.061 43.3451 105.858 46.1421C108.655 48.9392 112.219 50.844 116.098 51.6157C119.978 52.3874 123.999 51.9913 127.654 50.4776C131.308 48.9638 134.432 46.4004 136.629 43.1114C138.827 39.8224 140 35.9556 140 32C140 26.6957 137.893 21.6086 134.142 17.8579C130.391 14.1071 125.304 12 120 12Z" fill="#2FB1EA"/>
<path d="M122.25 29.5H117.75C117.391 29.5 117.046 29.3572 116.792 29.1031C116.538 28.849 116.395 28.5044 116.395 28.145C116.395 27.7856 116.538 27.441 116.792 27.1869C117.046 26.9328 117.391 26.79 117.75 26.79H126.1C126.763 26.79 127.399 26.5266 127.868 26.0578C128.337 25.5889 128.6 24.953 128.6 24.29C128.6 23.627 128.337 22.9911 127.868 22.5222C127.399 22.0534 126.763 21.79 126.1 21.79H122.5V20.43C122.5 19.767 122.237 19.1311 121.768 18.6622C121.299 18.1934 120.663 17.93 120 17.93C119.337 17.93 118.701 18.1934 118.232 18.6622C117.763 19.1311 117.5 19.767 117.5 20.43V21.8C115.816 21.8332 114.214 22.534 113.046 23.7483C111.879 24.9626 111.242 26.5909 111.275 28.275C111.308 29.9591 112.009 31.5611 113.223 32.7285C114.438 33.8959 116.066 34.5332 117.75 34.5H122.25C122.609 34.5 122.954 34.6428 123.208 34.8969C123.462 35.151 123.605 35.4956 123.605 35.855C123.605 36.2144 123.462 36.559 123.208 36.8131C122.954 37.0672 122.609 37.21 122.25 37.21H113.9C113.237 37.21 112.601 37.4734 112.132 37.9422C111.663 38.4111 111.4 39.047 111.4 39.71C111.4 40.373 111.663 41.0089 112.132 41.4778C112.601 41.9466 113.237 42.21 113.9 42.21H117.5V43.57C117.5 44.233 117.763 44.8689 118.232 45.3378C118.701 45.8066 119.337 46.07 120 46.07C120.663 46.07 121.299 45.8066 121.768 45.3378C122.237 44.8689 122.5 44.233 122.5 43.57V42.2C124.184 42.1668 125.786 41.466 126.954 40.2517C128.121 39.0374 128.758 37.4091 128.725 35.725C128.692 34.0409 127.991 32.4389 126.777 31.2715C125.562 30.1041 123.934 29.4668 122.25 29.5Z" fill="#2FB1EA"/>
</g>
<defs>
<clipPath id="clip0_212_115">
<rect width="152" height="148" fill="white"/>
</clipPath>
</defs>
</svg>
